<svg xmlns="http://www.w3.org/2000/svg" xmlns:xlink="http://www.w3.org/1999/xlink" viewBox="0 0 502.72 202.27"><defs><style>.cls-1{fill:none;}.cls-2{fill:#2b1c3f;}.cls-3{fill:#34224d;}.cls-21,.cls-4{fill:#ecc32d;}.cls-10,.cls-11,.cls-12,.cls-13,.cls-15,.cls-16,.cls-17,.cls-18,.cls-19,.cls-20,.cls-5,.cls-8,.cls-9{fill:#fff;}.cls-6{clip-path:url(#clip-path);}.cls-10,.cls-11,.cls-12,.cls-13,.cls-15,.cls-16,.cls-17,.cls-18,.cls-19,.cls-20,.cls-21,.cls-7,.cls-8,.cls-9{isolation:isolate;}.cls-10,.cls-11,.cls-8,.cls-9{font-size:18.7px;}.cls-10,.cls-11,.cls-12,.cls-13,.cls-15,.cls-16,.cls-17,.cls-18,.cls-19,.cls-20,.cls-8,.cls-9{font-family:Quicksand-Bold, Quicksand;font-weight:700;}.cls-8{letter-spacing:-0.02em;}.cls-10{letter-spacing:-0.05em;}.cls-11{letter-spacing:-0.03em;}.cls-12,.cls-13,.cls-15,.cls-16,.cls-17,.cls-18,.cls-19,.cls-20{font-size:11.39px;}.cls-13{letter-spacing:0.02em;}.cls-14{letter-spacing:0.02em;}.cls-15{letter-spacing:-0.02em;}.cls-16{letter-spacing:-0.01em;}.cls-17{letter-spacing:-0.02em;}.cls-18{letter-spacing:0.01em;}.cls-19{letter-spacing:-0.04em;}.cls-20{letter-spacing:0.02em;}.cls-21{font-size:36px;font-family:ChunkFive-Roman, ChunkFive;}</style><clipPath id="clip-path"><rect class="cls-1" width="502.7" height="202.26"/></clipPath></defs><title>1Asset 4web</title><g id="Layer_2" data-name="Layer 2"><g id="Layer_1-2" data-name="Layer 1"><g id="Objects"><rect class="cls-2" x="0.01" width="502.72" height="202.27"/><path class="cls-3" d="M341.46,82.91,331.17,93.25a4.25,4.25,0,0,1-7-4.49l20.31-20.4a6.84,6.84,0,0,0-9.68-9.67l-10,10a4.25,4.25,0,0,1-6.34-4.92l10.7-10.7a6.84,6.84,0,1,0-9.68-9.66L302.33,60.61a8.62,8.62,0,0,1-11.92-.25h0a8.61,8.61,0,0,1-.12-12l17.18-17.11a6.84,6.84,0,0,0-9.67-9.67L253.94,65.42A7.88,7.88,0,0,1,243,54.05l8.89-8.89a9.52,9.52,0,1,0-13.47-13.47L204.75,65.37a4.94,4.94,0,0,1-6.83-.12h0a5,5,0,0,1-.13-6.84L200,56.23a5,5,0,1,0-6.67-7.32c-.11.11-.22.21-.32.33l-51.48,51.49a4.93,4.93,0,0,0,0,7h0a4.93,4.93,0,0,0,7,0v0l6.74-6.73a4.93,4.93,0,0,1,7,7l-37.39,37.39a9.52,9.52,0,0,0,0,13.47h0a9.51,9.51,0,0,0,13.46,0h0l30.6-30.74A7.88,7.88,0,1,1,180.28,139l-4,4a6.84,6.84,0,0,0,9.67,9.67l30-30a8.6,8.6,0,0,1,12.23,12.1l-9,9a6.83,6.83,0,0,0,7.58,11.08l-6.54,6.55a4.28,4.28,0,0,0,6.05,6l17.07-17.07a6.82,6.82,0,0,1,9.48.16h0a6.74,6.74,0,0,1,1.39,7.52l-28.34,28.39a4.27,4.27,0,0,0,6,6h0L276,148.27a6.84,6.84,0,0,0,9.74,9.58l65.31-65.31a6.84,6.84,0,0,0-9.67-9.67h0Z"/><path class="cls-3" d="M378.43,55.6a6.86,6.86,0,0,0-9.67,0l-11,11a6.81,6.81,0,0,0,0,9.65v0h0a6.82,6.82,0,0,0,9.65,0h0l11-11A6.85,6.85,0,0,0,378.43,55.6Z"/><path class="cls-3" d="M131.64,90.65a4.7,4.7,0,0,0-6.65,0h0L99.74,115.9a4.71,4.71,0,1,0,6.66,6.66l25.25-25.25a4.71,4.71,0,0,0,0-6.66Z"/><path class="cls-3" d="M325.43,143.78,300.17,169a4.71,4.71,0,1,0,6.66,6.66l25.34-25.24a4.74,4.74,0,0,0-6.74-6.67Z"/><path class="cls-4" d="M36.76,171.85h-3.6v-3.59a1.71,1.71,0,1,0-3.37,0v3.59H26.14a1.71,1.71,0,1,0,0,3.37h3.6v3.6a1.71,1.71,0,0,0,3.37.56,1.75,1.75,0,0,0,0-.56v-3.6h3.61a1.71,1.71,0,0,0,0-3.37Z"/><path class="cls-5" d="M107.14,105h-2.91v-3a1.4,1.4,0,1,0-2.8,0v3h-3a1.41,1.41,0,0,0,0,2.81h3v3a1.4,1.4,0,1,0,2.8,0v-2.94h3a1.41,1.41,0,0,0,0-2.81Z"/><path class="cls-4" d="M459.32,30.37h-3.64V26.78a1.72,1.72,0,0,0-3.42,0v3.59h-3.59a1.71,1.71,0,1,0-.56,3.37,1.75,1.75,0,0,0,.56,0h3.64v3.61a1.72,1.72,0,0,0,3.43,0V33.8h3.59a1.71,1.71,0,0,0,0-3.37Z"/><circle class="cls-5" cx="376.56" cy="173.57" r="3.5"/><path class="cls-5" d="M375.28,127.44A2.25,2.25,0,1,1,373,125.2,2.25,2.25,0,0,1,375.28,127.44Z"/><path class="cls-5" d="M333.51,184.2a2.25,2.25,0,1,1-2.25-2.24h.06A2.24,2.24,0,0,1,333.51,184.2Z"/><path class="cls-5" d="M124.24,184.1a2.25,2.25,0,1,1-2.24-2.24A2.24,2.24,0,0,1,124.24,184.1Z"/><circle class="cls-4" cx="390.86" cy="89.27" r="2.2"/><path class="cls-4" d="M360.15,57.82a2.25,2.25,0,1,1-2.24-2.25A2.24,2.24,0,0,1,360.15,57.82Z"/><path class="cls-4" d="M62.46,78.28a2.25,2.25,0,1,1-2.3-2.18h.06a2.18,2.18,0,0,1,2.24,2.13Z"/><path class="cls-5" d="M463.23,68.15A2.25,2.25,0,1,1,461,65.9,2.24,2.24,0,0,1,463.23,68.15Z"/><path class="cls-4" d="M96.54,146a2.25,2.25,0,1,1-2.24-2.25A2.24,2.24,0,0,1,96.54,146Z"/><path class="cls-4" d="M416.79,19.55a2.25,2.25,0,1,1-2.25-2.25A2.24,2.24,0,0,1,416.79,19.55Z"/><path class="cls-4" d="M117.89,19.55a2.25,2.25,0,1,1-2.25-2.25A2.24,2.24,0,0,1,117.89,19.55Z"/><path class="cls-4" d="M241.59,184.2a2.25,2.25,0,1,1-2.25-2.24A2.25,2.25,0,0,1,241.59,184.2Z"/><circle class="cls-5" cx="53.48" cy="123.94" r="3.5"/><circle class="cls-4" cx="257.16" cy="19.55" r="3.5"/><polygon class="cls-4" points="431 101.13 420.06 100.39 426.05 93.03 431 101.13"/><polygon class="cls-4" points="109.47 55.36 98.56 56.51 103.2 48.23 109.47 55.36"/><polygon class="cls-5" points="181.22 187.09 170.31 188.24 174.95 179.96 181.22 187.09"/><polygon class="cls-5" points="344.42 28.06 333.51 29.22 338.14 20.93 344.42 28.06"/><path class="cls-5" d="M401.53,57.1,398,53.55a2.45,2.45,0,0,1,0-3.44h0a2.44,2.44,0,0,1,3.45,0h0L405,53.66a2.41,2.41,0,0,1,0,3.41l0,0h0a2.41,2.41,0,0,1-3.41,0Z"/><path class="cls-4" d="M291.58,182.38h-5a2.42,2.42,0,0,1-2.43-2.42h0a2.43,2.43,0,0,1,2.43-2.44h5A2.44,2.44,0,0,1,294,180h0A2.44,2.44,0,0,1,291.58,182.38Z"/><path class="cls-5" d="M160.18,19.5,156.64,23a2.42,2.42,0,0,1-3.42,0l0,0h0a2.41,2.41,0,0,1,0-3.41l0,0,3.55-3.54a2.42,2.42,0,0,1,3.43,0h0a2.42,2.42,0,0,1,0,3.44Z"/><path class="cls-5" d="M79.38,181l-3.54-3.54a2.43,2.43,0,0,1,0-3.44h0a2.43,2.43,0,0,1,3.44,0h0l3.54,3.55a2.41,2.41,0,0,1,0,3.41l0,0h0a2.41,2.41,0,0,1-3.41,0Z"/><g class="cls-6"><polygon class="cls-5" points="78.16 0 0 0 0 109.31 20.42 89.76 20.01 76.86 54.52 33.84 59.52 17.38 78.16 0"/><polygon class="cls-4" points="502.7 71.88 502.7 202.26 413.92 202.26 423.24 176.87 448.27 137.06 448.27 123.97 502.7 71.88"/><path class="cls-4" d="M431,149.64l-10.83,10.84a5.34,5.34,0,0,1-7.51,0h0a5.32,5.32,0,0,1,0-7.5l10.85-10.84a5.29,5.29,0,0,1,7.49,0h0a5.27,5.27,0,0,1,.08,7.48A.07.07,0,0,1,431,149.64Z"/><path class="cls-4" d="M486.25,120.68l-68.5,68.5a5.32,5.32,0,0,1-7.5,0h0a5.32,5.32,0,0,1,0-7.5l68.5-68.5a5.31,5.31,0,0,1,7.49,0h0A5.31,5.31,0,0,1,486.25,120.68Z"/><path class="cls-2" d="M461.22,130.77,390.88,201a3.94,3.94,0,0,1-5.6,0h0a4,4,0,0,1,0-5.61l70.33-70.32a4,4,0,0,1,5.61,0h0a4,4,0,0,1,0,5.63Z"/><path class="cls-2" d="M83.76,0,51.07,32.7a4,4,0,0,1-5.55,0h0a3.93,3.93,0,0,1,0-5.54l0,0L72.65,0H83.76"/><path class="cls-2" d="M73.69,31.1,13.35,91.46a3.51,3.51,0,0,1-4.95,0h0a3.49,3.49,0,0,1,0-4.94v0L68.75,26.16a3.49,3.49,0,0,1,4.92,0l0,0h0a3.48,3.48,0,0,1,0,4.92Z"/><path class="cls-5" d="M0,83.68,60.57,23.13a3.92,3.92,0,0,1,5.54-.07l.07.07h0a3.93,3.93,0,0,1,0,5.56l0,0L0,94.8Z"/><path class="cls-5" d="M93.17,0,83,11.82a3.93,3.93,0,0,1-5.55,0h0a3.92,3.92,0,0,1-.07-5.54.46.46,0,0,0,.07-.07L83.68,0Z"/><path class="cls-5" d="M0,104.69,25.08,79.62a4,4,0,0,1,5.58,0l0,0h0a3.94,3.94,0,0,1,0,5.56L0,115.85Z"/></g><g class="cls-7"><text class="cls-8" transform="translate(169.95 52.26)">T</text><text class="cls-9" transform="translate(181.7 52.26)">his is </text><text class="cls-10" transform="translate(233.27 52.26)">r</text><text class="cls-9" transform="translate(240.55 52.26)">esponsi</text><text class="cls-11" transform="translate(311.07 52.26)">v</text><text class="cls-9" transform="translate(321.39 52.26)">e</text></g><g class="cls-7"><text class="cls-12" transform="translate(124.92 158.54)">Ju</text><text class="cls-13" transform="translate(138.66 158.54)">s</text><text class="cls-12" transform="translate(144.43 158.54)">t a <tspan class="cls-14" x="18.13" y="0">d</tspan><tspan x="25.4" y="0">um</tspan></text><text class="cls-15" transform="translate(188.19 158.54)">m</text><text class="cls-12" transform="translate(198.84 158.54)">y </text><text class="cls-15" transform="translate(208.96 158.54)">s</text><text class="cls-15" transform="translate(214.33 158.54)">v</text><text class="cls-12" transform="translate(220.67 158.54)">g b</text><text class="cls-16" transform="translate(239.12 158.54)">a</text><text class="cls-12" transform="translate(246.05 158.54)">nn</text><text class="cls-15" transform="translate(260 158.54)">e</text><text class="cls-12" transform="translate(266.71 158.54)">r </text><text class="cls-16" transform="translate(275.12 158.54)">f</text><text class="cls-17" transform="translate(279.1 158.54)">o</text><text class="cls-12" transform="translate(285.99 158.54)">r </text><text class="cls-15" transform="translate(294.41 158.54)">v</text><text class="cls-18" transform="translate(300.75 158.54)">a</text><text class="cls-12" transform="translate(307.96 158.54)">lidation </text><text class="cls-19" transform="translate(353.82 158.54)">t</text><text class="cls-12" transform="translate(357.92 158.54)">e</text><text class="cls-20" transform="translate(364.86 158.54)">s</text><text class="cls-12" transform="translate(370.63 158.54)">t.</text></g><text class="cls-21" transform="translate(187.7 90.32)">Banner<tspan x="-23.09" y="43.2">Web view</tspan></text></g></g></g></svg>